<svg xmlns="http://www.w3.org/2000/svg" viewBox="0 0 512 512">
  <defs>
    <linearGradient id="g" x1="0" y1="0" x2="1" y2="1">
      <stop offset="0%" stop-color="#2D7A3E"/>
      <stop offset="100%" stop-color="#1F5E2E"/>
    </linearGradient>
  </defs>
  <rect width="512" height="512" rx="96" fill="url(#g)"/>
  <g stroke="#E8F5E9" stroke-width="6" opacity="0.5">
    <path d="M64 128h384M64 192h384M64 256h384M64 320h384M64 384h384"/>
    <path d="M128 64v384M192 64v384M256 64v384M320 64v384M384 64v384"/>
  </g>
  <path d="M128 360c40-160 144-216 256-216-16 128-96 224-224 240-16 0-32-8-32-24z"
        fill="#FFA726"/>
  <path d="M128 360c52-80 128-144 240-200"
        stroke="#1F5E2E" stroke-width="10" stroke-linecap="round" opacity="0.6" fill="none"/>
</svg>
